<?xml version="1.0" encoding="UTF-8" standalone="no"?>
<!DOCTYPE svg PUBLIC "-//W3C//DTD SVG 1.1//EN"
 "http://www.w3.org/Graphics/SVG/1.1/DTD/svg11.dtd">
<!-- Generated by graphviz version 2.43.0 (0)
 -->
<!-- Title: RDMLReproduction Pages: 1 -->
<svg width="2354pt" height="456pt"
 viewBox="0.00 0.00 2354.00 456.00" xmlns="http://www.w3.org/2000/svg" xmlns:xlink="http://www.w3.org/1999/xlink">
<g id="graph0" class="graph" transform="scale(1 1) rotate(0) translate(4 452)">
<title>RDMLReproduction</title>
<polygon fill="white" stroke="transparent" points="-4,4 -4,-452 2350,-452 2350,4 -4,4"/>
<text text-anchor="middle" x="1173" y="-428" font-family="Helvetica,sans-Serif" font-size="20.00">RDML partial reproduction: protocol, implementation choices, and diagnostic evidence</text>
<g id="clust1" class="cluster">
<title>cluster_paper</title>
<path fill="none" stroke="black" d="M20,-46C20,-46 702.5,-46 702.5,-46 708.5,-46 714.5,-52 714.5,-58 714.5,-58 714.5,-200 714.5,-200 714.5,-206 708.5,-212 702.5,-212 702.5,-212 20,-212 20,-212 14,-212 8,-206 8,-200 8,-200 8,-58 8,-58 8,-52 14,-46 20,-46"/>
<text text-anchor="middle" x="361.25" y="-192" font-family="Helvetica,sans-Serif" font-size="20.00">Published 2009 experiment</text>
</g>
<g id="clust2" class="cluster">
<title>cluster_repo</title>
<path fill="none" stroke="black" d="M60.5,-220C60.5,-220 702.5,-220 702.5,-220 708.5,-220 714.5,-226 714.5,-232 714.5,-232 714.5,-398 714.5,-398 714.5,-404 708.5,-410 702.5,-410 702.5,-410 60.5,-410 60.5,-410 54.5,-410 48.5,-404 48.5,-398 48.5,-398 48.5,-232 48.5,-232 48.5,-226 54.5,-220 60.5,-220"/>
<text text-anchor="middle" x="381.5" y="-390" font-family="Helvetica,sans-Serif" font-size="20.00">Repository&#45;fixed reproduction choices</text>
</g>
<g id="clust3" class="cluster">
<title>cluster_methods</title>
<path fill="none" stroke="black" d="M813,-157C813,-157 1519,-157 1519,-157 1525,-157 1531,-163 1531,-169 1531,-169 1531,-393 1531,-393 1531,-399 1525,-405 1519,-405 1519,-405 813,-405 813,-405 807,-405 801,-399 801,-393 801,-393 801,-169 801,-169 801,-163 807,-157 813,-157"/>
<text text-anchor="middle" x="1166" y="-385" font-family="Helvetica,sans-Serif" font-size="20.00">Same split, three diagnostic paths</text>
</g>
<!-- paper_protocol -->
<g id="node1" class="node">
<title>paper_protocol</title>
<path fill="none" stroke="black" d="M264,-174C264,-174 69,-174 69,-174 63,-174 57,-168 57,-162 57,-162 57,-148 57,-148 57,-142 63,-136 69,-136 69,-136 264,-136 264,-136 270,-136 276,-142 276,-148 276,-148 276,-162 276,-162 276,-168 270,-174 264,-174"/>
<text text-anchor="middle" x="166.5" y="-158.2" font-family="Helvetica,sans-Serif" font-size="11.00">Experiment I protocol</text>
<text text-anchor="middle" x="166.5" y="-146.2" font-family="Helvetica,sans-Serif" font-size="11.00">3&#45;NN · random 50/50 split · 10 runs</text>
</g>
<!-- paper_values -->
<g id="node2" class="node">
<title>paper_values</title>
<path fill="none" stroke="black" d="M694.5,-154C694.5,-154 558.5,-154 558.5,-154 552.5,-154 546.5,-148 546.5,-142 546.5,-142 546.5,-128 546.5,-128 546.5,-122 552.5,-116 558.5,-116 558.5,-116 694.5,-116 694.5,-116 700.5,-116 706.5,-122 706.5,-128 706.5,-128 706.5,-142 706.5,-142 706.5,-148 700.5,-154 694.5,-154"/>
<text text-anchor="middle" x="626.5" y="-138.2" font-family="Helvetica,sans-Serif" font-size="11.00">Published Table 1 values</text>
<text text-anchor="middle" x="626.5" y="-126.2" font-family="Helvetica,sans-Serif" font-size="11.00">reference context only</text>
</g>
<!-- paper_protocol&#45;&gt;paper_values -->
<g id="edge2" class="edge">
<title>paper_protocol&#45;&gt;paper_values</title>
<path fill="none" stroke="black" d="M276.1,-145C276.1,-145 536.18,-145 536.18,-145"/>
<polygon fill="black" stroke="black" points="536.18,-148.5 546.18,-145 536.18,-141.5 536.18,-148.5"/>
<text text-anchor="middle" x="408" y="-145" font-family="Helvetica,sans-Serif" font-size="10.00">reported outcome</text>
</g>
<!-- split -->
<g id="node6" class="node">
<title>split</title>
<path fill="none" stroke="black" d="M694.5,-279C694.5,-279 558.5,-279 558.5,-279 552.5,-279 546.5,-273 546.5,-267 546.5,-267 546.5,-253 546.5,-253 546.5,-247 552.5,-241 558.5,-241 558.5,-241 694.5,-241 694.5,-241 700.5,-241 706.5,-247 706.5,-253 706.5,-253 706.5,-267 706.5,-267 706.5,-273 700.5,-279 694.5,-279"/>
<text text-anchor="middle" x="626.5" y="-263.2" font-family="Helvetica,sans-Serif" font-size="11.00">Deterministic 50/50 split</text>
<text text-anchor="middle" x="626.5" y="-251.2" font-family="Helvetica,sans-Serif" font-size="11.00">per seed</text>
</g>
<!-- paper_protocol&#45;&gt;split -->
<g id="edge1" class="edge">
<title>paper_protocol&#45;&gt;split</title>
<path fill="none" stroke="black" d="M276.17,-169.5C404.6,-169.5 600,-169.5 600,-169.5 600,-169.5 600,-230.81 600,-230.81"/>
<polygon fill="black" stroke="black" points="596.5,-230.81 600,-240.81 603.5,-230.81 596.5,-230.81"/>
<text text-anchor="middle" x="408" y="-207" font-family="Helvetica,sans-Serif" font-size="10.00">evaluation structure</text>
</g>
<!-- compare -->
<g id="node15" class="node">
<title>compare</title>
<path fill="none" stroke="black" d="M2027,-135C2027,-135 1864,-135 1864,-135 1858,-135 1852,-129 1852,-123 1852,-123 1852,-109 1852,-109 1852,-103 1858,-97 1864,-97 1864,-97 2027,-97 2027,-97 2033,-97 2039,-103 2039,-109 2039,-109 2039,-123 2039,-123 2039,-129 2033,-135 2027,-135"/>
<text text-anchor="middle" x="1945.5" y="-119.2" font-family="Helvetica,sans-Serif" font-size="11.00">Diagnostic comparison</text>
<text text-anchor="middle" x="1945.5" y="-107.2" font-family="Helvetica,sans-Serif" font-size="11.00">reproduced results vs Table 1</text>
</g>
<!-- paper_values&#45;&gt;compare -->
<g id="edge17" class="edge">
<title>paper_values&#45;&gt;compare</title>
<path fill="none" stroke="black" d="M706.53,-125.5C706.53,-125.5 1841.65,-125.5 1841.65,-125.5"/>
<polygon fill="black" stroke="black" points="1841.65,-129 1851.65,-125.5 1841.65,-122 1841.65,-129"/>
<text text-anchor="middle" x="1321.5" y="-119" font-family="Helvetica,sans-Serif" font-size="10.00">context, not target</text>
</g>
<!-- missing_detail -->
<g id="node3" class="node">
<title>missing_detail</title>
<path fill="none" stroke="black" d="M305,-104C305,-104 28,-104 28,-104 22,-104 16,-98 16,-92 16,-92 16,-66 16,-66 16,-60 22,-54 28,-54 28,-54 305,-54 305,-54 311,-54 317,-60 317,-66 317,-66 317,-92 317,-92 317,-98 311,-104 305,-104"/>
<text text-anchor="middle" x="166.5" y="-88.2" font-family="Helvetica,sans-Serif" font-size="11.00">Unpublished implementation detail</text>
<text text-anchor="middle" x="166.5" y="-76.2" font-family="Helvetica,sans-Serif" font-size="11.00">seeds · sampled pair streams · per&#45;dataset tuning</text>
<text text-anchor="middle" x="166.5" y="-64.2" font-family="Helvetica,sans-Serif" font-size="11.00">preprocessing · singular&#45;start convention</text>
</g>
<!-- boundary -->
<g id="node17" class="node">
<title>boundary</title>
<polygon fill="none" stroke="black" points="748,-38 499,-38 499,0 754,0 754,-32 748,-38"/>
<polyline fill="none" stroke="black" points="748,-38 748,-32 "/>
<polyline fill="none" stroke="black" points="754,-32 748,-32 "/>
<text text-anchor="middle" x="626.5" y="-22.2" font-family="Helvetica,sans-Serif" font-size="11.00">Claim boundary</text>
<text text-anchor="middle" x="626.5" y="-10.2" font-family="Helvetica,sans-Serif" font-size="11.00">partial reproduction, not exact replication</text>
</g>
<!-- missing_detail&#45;&gt;boundary -->
<g id="edge3" class="edge">
<title>missing_detail&#45;&gt;boundary</title>
<path fill="none" stroke="black" d="M317.17,-66C414.47,-66 523,-66 523,-66 523,-66 523,-48.12 523,-48.12"/>
<polygon fill="black" stroke="black" points="526.5,-48.12 523,-38.12 519.5,-48.12 526.5,-48.12"/>
<text text-anchor="middle" x="408" y="-52" font-family="Helvetica,sans-Serif" font-size="10.00">prevents exact replication</text>
</g>
<!-- datasets -->
<g id="node4" class="node">
<title>datasets</title>
<path fill="none" stroke="black" d="M264.5,-278C264.5,-278 68.5,-278 68.5,-278 62.5,-278 56.5,-272 56.5,-266 56.5,-266 56.5,-240 56.5,-240 56.5,-234 62.5,-228 68.5,-228 68.5,-228 264.5,-228 264.5,-228 270.5,-228 276.5,-234 276.5,-240 276.5,-240 276.5,-266 276.5,-266 276.5,-272 270.5,-278 264.5,-278"/>
<text text-anchor="middle" x="166.5" y="-262.2" font-family="Helvetica,sans-Serif" font-size="11.00">Bundled Iris + Wine copies</text>
<text text-anchor="middle" x="166.5" y="-250.2" font-family="Helvetica,sans-Serif" font-size="11.00">scikit&#45;learn benchmark dependency</text>
<text text-anchor="middle" x="166.5" y="-238.2" font-family="Helvetica,sans-Serif" font-size="11.00">no runtime download</text>
</g>
<!-- datasets&#45;&gt;split -->
<g id="edge4" class="edge">
<title>datasets&#45;&gt;split</title>
<path fill="none" stroke="black" d="M276.68,-259.5C276.68,-259.5 536.39,-259.5 536.39,-259.5"/>
<polygon fill="black" stroke="black" points="536.39,-263 546.39,-259.5 536.39,-256 536.39,-263"/>
<text text-anchor="middle" x="408" y="-263" font-family="Helvetica,sans-Serif" font-size="10.00">data</text>
</g>
<!-- choices -->
<g id="node5" class="node">
<title>choices</title>
<path fill="none" stroke="black" d="M257,-372C257,-372 76,-372 76,-372 70,-372 64,-366 64,-360 64,-360 64,-322 64,-322 64,-316 70,-310 76,-310 76,-310 257,-310 257,-310 263,-310 269,-316 269,-322 269,-322 269,-360 269,-360 269,-366 263,-372 257,-372"/>
<text text-anchor="middle" x="166.5" y="-356.2" font-family="Helvetica,sans-Serif" font-size="11.00">Explicit choices</text>
<text text-anchor="middle" x="166.5" y="-344.2" font-family="Helvetica,sans-Serif" font-size="11.00">seeds 0..9 · learning rate 0.1</text>
<text text-anchor="middle" x="166.5" y="-332.2" font-family="Helvetica,sans-Serif" font-size="11.00">margin 1.0 · 10,000 pair updates</text>
<text text-anchor="middle" x="166.5" y="-320.2" font-family="Helvetica,sans-Serif" font-size="11.00">no feature standardization</text>
</g>
<!-- choices&#45;&gt;split -->
<g id="edge5" class="edge">
<title>choices&#45;&gt;split</title>
<path fill="none" stroke="black" d="M269.23,-333.67C397.43,-333.67 600,-333.67 600,-333.67 600,-333.67 600,-289.36 600,-289.36"/>
<polygon fill="black" stroke="black" points="603.5,-289.36 600,-279.36 596.5,-289.36 603.5,-289.36"/>
<text text-anchor="middle" x="408" y="-327" font-family="Helvetica,sans-Serif" font-size="10.00">fixed stochastic choices</text>
</g>
<!-- euclidean -->
<g id="node7" class="node">
<title>euclidean</title>
<path fill="none" stroke="black" d="M960.5,-203C960.5,-203 876.5,-203 876.5,-203 870.5,-203 864.5,-197 864.5,-191 864.5,-191 864.5,-177 864.5,-177 864.5,-171 870.5,-165 876.5,-165 876.5,-165 960.5,-165 960.5,-165 966.5,-165 972.5,-171 972.5,-177 972.5,-177 972.5,-191 972.5,-191 972.5,-197 966.5,-203 960.5,-203"/>
<text text-anchor="middle" x="918.5" y="-187.2" font-family="Helvetica,sans-Serif" font-size="11.00">Euclidean 3&#45;NN</text>
<text text-anchor="middle" x="918.5" y="-175.2" font-family="Helvetica,sans-Serif" font-size="11.00">baseline</text>
</g>
<!-- split&#45;&gt;euclidean -->
<g id="edge6" class="edge">
<title>split&#45;&gt;euclidean</title>
<path fill="none" stroke="black" d="M654,-240.84C654,-219.66 654,-188.5 654,-188.5 654,-188.5 854.34,-188.5 854.34,-188.5"/>
<polygon fill="black" stroke="black" points="854.34,-192 864.34,-188.5 854.34,-185 854.34,-192"/>
</g>
<!-- exact -->
<g id="node8" class="node">
<title>exact</title>
<path fill="none" stroke="black" d="M1016,-367C1016,-367 821,-367 821,-367 815,-367 809,-361 809,-355 809,-355 809,-329 809,-329 809,-323 815,-317 821,-317 821,-317 1016,-317 1016,-317 1022,-317 1028,-323 1028,-329 1028,-329 1028,-355 1028,-355 1028,-361 1022,-367 1016,-367"/>
<text text-anchor="middle" x="918.5" y="-351.2" font-family="Helvetica,sans-Serif" font-size="11.00">RDML exact</text>
<text text-anchor="middle" x="918.5" y="-339.2" font-family="Helvetica,sans-Serif" font-size="11.00">Algorithm 1 projected update</text>
<text text-anchor="middle" x="918.5" y="-327.2" font-family="Helvetica,sans-Serif" font-size="11.00">eigendecomposition PSD projection</text>
</g>
<!-- split&#45;&gt;exact -->
<g id="edge7" class="edge">
<title>split&#45;&gt;exact</title>
<path fill="none" stroke="black" d="M654,-279.16C654,-305.67 654,-350.33 654,-350.33 654,-350.33 798.63,-350.33 798.63,-350.33"/>
<polygon fill="black" stroke="black" points="798.63,-353.83 808.63,-350.33 798.63,-346.83 798.63,-353.83"/>
</g>
<!-- paper_safe -->
<g id="node9" class="node">
<title>paper_safe</title>
<path fill="none" stroke="black" d="M1010,-285C1010,-285 827,-285 827,-285 821,-285 815,-279 815,-273 815,-273 815,-247 815,-247 815,-241 821,-235 827,-235 827,-235 1010,-235 1010,-235 1016,-235 1022,-241 1022,-247 1022,-247 1022,-273 1022,-273 1022,-279 1016,-285 1010,-285"/>
<text text-anchor="middle" x="918.5" y="-269.2" font-family="Helvetica,sans-Serif" font-size="11.00">RDML paper&#45;safe</text>
<text text-anchor="middle" x="918.5" y="-257.2" font-family="Helvetica,sans-Serif" font-size="11.00">Theorem 6 step cap + CG</text>
<text text-anchor="middle" x="918.5" y="-245.2" font-family="Helvetica,sans-Serif" font-size="11.00">conservative singular&#45;matrix rule</text>
</g>
<!-- split&#45;&gt;paper_safe -->
<g id="edge8" class="edge">
<title>split&#45;&gt;paper_safe</title>
<path fill="none" stroke="black" d="M706.68,-260C706.68,-260 804.93,-260 804.93,-260"/>
<polygon fill="black" stroke="black" points="804.93,-263.5 814.93,-260 804.93,-256.5 804.93,-263.5"/>
</g>
<!-- aggregate -->
<g id="node14" class="node">
<title>aggregate</title>
<path fill="none" stroke="black" d="M1785,-231C1785,-231 1590,-231 1590,-231 1584,-231 1578,-225 1578,-219 1578,-219 1578,-193 1578,-193 1578,-187 1584,-181 1590,-181 1590,-181 1785,-181 1785,-181 1791,-181 1797,-187 1797,-193 1797,-193 1797,-219 1797,-219 1797,-225 1791,-231 1785,-231"/>
<text text-anchor="middle" x="1687.5" y="-215.2" font-family="Helvetica,sans-Serif" font-size="11.00">Aggregate classification error</text>
<text text-anchor="middle" x="1687.5" y="-203.2" font-family="Helvetica,sans-Serif" font-size="11.00">mean + sample standard deviation</text>
<text text-anchor="middle" x="1687.5" y="-191.2" font-family="Helvetica,sans-Serif" font-size="11.00">across 10 runs</text>
</g>
<!-- euclidean&#45;&gt;aggregate -->
<g id="edge13" class="edge">
<title>euclidean&#45;&gt;aggregate</title>
<path fill="none" stroke="black" d="M972.57,-192C972.57,-192 1567.81,-192 1567.81,-192"/>
<polygon fill="black" stroke="black" points="1567.81,-195.5 1577.81,-192 1567.81,-188.5 1567.81,-195.5"/>
</g>
<!-- transformed_exact -->
<g id="node10" class="node">
<title>transformed_exact</title>
<path fill="none" stroke="black" d="M1227,-354C1227,-354 1105,-354 1105,-354 1099,-354 1093,-348 1093,-342 1093,-342 1093,-328 1093,-328 1093,-322 1099,-316 1105,-316 1105,-316 1227,-316 1227,-316 1233,-316 1239,-322 1239,-328 1239,-328 1239,-342 1239,-342 1239,-348 1233,-354 1227,-354"/>
<text text-anchor="middle" x="1166" y="-338.2" font-family="Helvetica,sans-Serif" font-size="11.00">Exact learned metric</text>
<text text-anchor="middle" x="1166" y="-326.2" font-family="Helvetica,sans-Serif" font-size="11.00">transform train + test</text>
</g>
<!-- exact&#45;&gt;transformed_exact -->
<g id="edge9" class="edge">
<title>exact&#45;&gt;transformed_exact</title>
<path fill="none" stroke="black" d="M1028.14,-335.5C1028.14,-335.5 1082.7,-335.5 1082.7,-335.5"/>
<polygon fill="black" stroke="black" points="1082.7,-339 1092.7,-335.5 1082.7,-332 1082.7,-339"/>
</g>
<!-- transformed_paper -->
<g id="node11" class="node">
<title>transformed_paper</title>
<path fill="none" stroke="black" d="M1237,-276C1237,-276 1095,-276 1095,-276 1089,-276 1083,-270 1083,-264 1083,-264 1083,-250 1083,-250 1083,-244 1089,-238 1095,-238 1095,-238 1237,-238 1237,-238 1243,-238 1249,-244 1249,-250 1249,-250 1249,-264 1249,-264 1249,-270 1243,-276 1237,-276"/>
<text text-anchor="middle" x="1166" y="-260.2" font-family="Helvetica,sans-Serif" font-size="11.00">Paper&#45;safe learned metric</text>
<text text-anchor="middle" x="1166" y="-248.2" font-family="Helvetica,sans-Serif" font-size="11.00">transform train + test</text>
</g>
<!-- paper_safe&#45;&gt;transformed_paper -->
<g id="edge10" class="edge">
<title>paper_safe&#45;&gt;transformed_paper</title>
<path fill="none" stroke="black" d="M1022.03,-257C1022.03,-257 1072.81,-257 1072.81,-257"/>
<polygon fill="black" stroke="black" points="1072.81,-260.5 1082.81,-257 1072.81,-253.5 1072.81,-260.5"/>
</g>
<!-- knn_exact -->
<g id="node12" class="node">
<title>knn_exact</title>
<path fill="none" stroke="black" d="M1511,-339C1511,-339 1406,-339 1406,-339 1400,-339 1394,-333 1394,-327 1394,-327 1394,-315 1394,-315 1394,-309 1400,-303 1406,-303 1406,-303 1511,-303 1511,-303 1517,-303 1523,-309 1523,-315 1523,-315 1523,-327 1523,-327 1523,-333 1517,-339 1511,-339"/>
<text text-anchor="middle" x="1458.5" y="-318.2" font-family="Helvetica,sans-Serif" font-size="11.00">Deterministic 3&#45;NN</text>
</g>
<!-- transformed_exact&#45;&gt;knn_exact -->
<g id="edge11" class="edge">
<title>transformed_exact&#45;&gt;knn_exact</title>
<path fill="none" stroke="black" d="M1239.06,-327.5C1239.06,-327.5 1383.84,-327.5 1383.84,-327.5"/>
<polygon fill="black" stroke="black" points="1383.84,-331 1393.84,-327.5 1383.84,-324 1383.84,-331"/>
</g>
<!-- knn_paper -->
<g id="node13" class="node">
<title>knn_paper</title>
<path fill="none" stroke="black" d="M1511,-270C1511,-270 1406,-270 1406,-270 1400,-270 1394,-264 1394,-258 1394,-258 1394,-246 1394,-246 1394,-240 1400,-234 1406,-234 1406,-234 1511,-234 1511,-234 1517,-234 1523,-240 1523,-246 1523,-246 1523,-258 1523,-258 1523,-264 1517,-270 1511,-270"/>
<text text-anchor="middle" x="1458.5" y="-249.2" font-family="Helvetica,sans-Serif" font-size="11.00">Deterministic 3&#45;NN</text>
</g>
<!-- transformed_paper&#45;&gt;knn_paper -->
<g id="edge12" class="edge">
<title>transformed_paper&#45;&gt;knn_paper</title>
<path fill="none" stroke="black" d="M1249.04,-254C1249.04,-254 1383.86,-254 1383.86,-254"/>
<polygon fill="black" stroke="black" points="1383.86,-257.5 1393.86,-254 1383.86,-250.5 1383.86,-257.5"/>
</g>
<!-- knn_exact&#45;&gt;aggregate -->
<g id="edge14" class="edge">
<title>knn_exact&#45;&gt;aggregate</title>
<path fill="none" stroke="black" d="M1523.04,-321C1590.92,-321 1688,-321 1688,-321 1688,-321 1688,-241.24 1688,-241.24"/>
<polygon fill="black" stroke="black" points="1691.5,-241.24 1688,-231.24 1684.5,-241.24 1691.5,-241.24"/>
</g>
<!-- knn_paper&#45;&gt;aggregate -->
<g id="edge15" class="edge">
<title>knn_paper&#45;&gt;aggregate</title>
<path fill="none" stroke="black" d="M1459,-233.75C1459,-224.62 1459,-215.5 1459,-215.5 1459,-215.5 1567.93,-215.5 1567.93,-215.5"/>
<polygon fill="black" stroke="black" points="1567.93,-219 1577.93,-215.5 1567.93,-212 1567.93,-219"/>
</g>
<!-- aggregate&#45;&gt;compare -->
<g id="edge16" class="edge">
<title>aggregate&#45;&gt;compare</title>
<path fill="none" stroke="black" d="M1797.13,-206C1867.58,-206 1946,-206 1946,-206 1946,-206 1946,-145.09 1946,-145.09"/>
<polygon fill="black" stroke="black" points="1949.5,-145.09 1946,-135.09 1942.5,-145.09 1949.5,-145.09"/>
</g>
<!-- interpretation -->
<g id="node16" class="node">
<title>interpretation</title>
<path fill="none" stroke="black" d="M2334,-90C2334,-90 2106,-90 2106,-90 2100,-90 2094,-84 2094,-78 2094,-78 2094,-28 2094,-28 2094,-22 2100,-16 2106,-16 2106,-16 2334,-16 2334,-16 2340,-16 2346,-22 2346,-28 2346,-28 2346,-78 2346,-78 2346,-84 2340,-90 2334,-90"/>
<text text-anchor="middle" x="2220" y="-74.2" font-family="Helvetica,sans-Serif" font-size="11.00">Scientific interpretation</text>
<text text-anchor="middle" x="2220" y="-62.2" font-family="Helvetica,sans-Serif" font-size="11.00">Iris broadly compatible</text>
<text text-anchor="middle" x="2220" y="-50.2" font-family="Helvetica,sans-Serif" font-size="11.00">Wine discrepancy localizes the main gap</text>
<text text-anchor="middle" x="2220" y="-38.2" font-family="Helvetica,sans-Serif" font-size="11.00">to the efficient&#45;update interpretation</text>
<text text-anchor="middle" x="2220" y="-26.2" font-family="Helvetica,sans-Serif" font-size="11.00">No parameter search to force agreement</text>
</g>
<!-- compare&#45;&gt;interpretation -->
<g id="edge18" class="edge">
<title>compare&#45;&gt;interpretation</title>
<path fill="none" stroke="black" d="M1946,-96.55C1946,-87.21 1946,-78 1946,-78 1946,-78 2083.83,-78 2083.83,-78"/>
<polygon fill="black" stroke="black" points="2083.83,-81.5 2093.83,-78 2083.83,-74.5 2083.83,-81.5"/>
</g>
<!-- boundary&#45;&gt;interpretation -->
<g id="edge19" class="edge">
<title>boundary&#45;&gt;interpretation</title>
<path fill="none" stroke="black" stroke-dasharray="5,2" d="M754.21,-27C754.21,-27 2083.89,-27 2083.89,-27"/>
<polygon fill="black" stroke="black" points="2083.89,-30.5 2093.89,-27 2083.89,-23.5 2083.89,-30.5"/>
</g>
</g>
</svg>
